<svg xmlns="http://www.w3.org/2000/svg" xmlns:xlink="http://www.w3.org/1999/xlink" viewBox="0 0 750 500"><defs><style>.cls-1{fill:none;stroke:#b2b2be;stroke-miterlimit:10;}.cls-2{isolation:isolate;}.cls-3{clip-path:url(#clip-path);}.cls-4{mix-blend-mode:overlay;}.cls-5{fill:#b2b2be;}.cls-6{clip-path:url(#clip-path-2);}.cls-7{fill:url(#Degradado_sin_nombre_132);}.cls-8{fill:url(#Degradado_sin_nombre_138);}.cls-9{fill:url(#Degradado_sin_nombre_132-2);}.cls-10{fill:url(#Degradado_sin_nombre_138-2);}.cls-11{fill:url(#Degradado_sin_nombre_132-3);}.cls-12{fill:url(#Degradado_sin_nombre_138-3);}.cls-13{fill:url(#Degradado_sin_nombre_132-4);}.cls-14{fill:url(#Degradado_sin_nombre_138-4);}</style><clipPath id="clip-path"><rect class="cls-1" width="750" height="500"/></clipPath><clipPath id="clip-path-2"><rect class="cls-1" x="125" y="-515.97" width="500" height="500"/></clipPath><linearGradient id="Degradado_sin_nombre_132" x1="506.78" y1="57.39" x2="217.7" y2="-12.16" gradientTransform="translate(153.28 -292.41) rotate(45)" gradientUnits="userSpaceOnUse"><stop offset="0" stop-color="#896288" stop-opacity="0"/><stop offset="0.09" stop-color="#8e6788" stop-opacity="0.04"/><stop offset="0.23" stop-color="#9a7488" stop-opacity="0.15"/><stop offset="0.42" stop-color="#af8a89" stop-opacity="0.32"/><stop offset="0.65" stop-color="#cca88a" stop-opacity="0.56"/><stop offset="0.9" stop-color="#efcf8b" stop-opacity="0.87"/><stop offset="1" stop-color="#ffdf8b"/></linearGradient><linearGradient id="Degradado_sin_nombre_138" x1="201.29" y1="38.82" x2="441" y2="38.82" gradientUnits="userSpaceOnUse"><stop offset="0" stop-color="#896288" stop-opacity="0"/><stop offset="0.22" stop-color="#7f597f" stop-opacity="0.14"/><stop offset="0.61" stop-color="#654267" stop-opacity="0.52"/><stop offset="1" stop-color="#442548"/></linearGradient><linearGradient id="Degradado_sin_nombre_132-2" x1="6892.08" y1="-6889.02" x2="6603.01" y2="-6958.57" gradientTransform="translate(905.06 9745.29) rotate(-45)" xlink:href="#Degradado_sin_nombre_132"/><linearGradient id="Degradado_sin_nombre_138-2" x1="6586.59" y1="-6907.58" x2="6826.31" y2="-6907.58" gradientTransform="translate(7747.12 6856.93) rotate(-90)" xlink:href="#Degradado_sin_nombre_138"/><linearGradient id="Degradado_sin_nombre_132-3" x1="6860.91" y1="6273.96" x2="6650.58" y2="6223.36" gradientTransform="translate(9919.34 -341.83) rotate(135)" xlink:href="#Degradado_sin_nombre_132"/><linearGradient id="Degradado_sin_nombre_138-3" x1="6638.64" y1="6260.46" x2="6813.05" y2="6260.46" gradientTransform="translate(6941.28 -6761.71) rotate(90)" xlink:href="#Degradado_sin_nombre_138"/><linearGradient id="Degradado_sin_nombre_132-4" x1="908.49" y1="-1239.93" x2="619.42" y2="-1309.48" gradientTransform="translate(-1296.38 284.21) rotate(45)" xlink:href="#Degradado_sin_nombre_132"/><linearGradient id="Degradado_sin_nombre_138-4" x1="603" y1="-1258.5" x2="842.71" y2="-1258.5" gradientTransform="translate(-649.98 1240.65)" xlink:href="#Degradado_sin_nombre_138"/></defs><title>Mesa de trabajo 1 copia</title><g class="cls-2"><g id="BACKGROUND_2" data-name="BACKGROUND 2"><g class="cls-3"><g class="cls-4"><polygon class="cls-5" points="251.46 120.7 274.01 142.9 296.44 165.22 341.31 209.85 385.94 254.72 408.26 277.15 430.46 299.7 407.91 277.5 385.48 255.19 340.61 210.55 295.98 165.69 273.66 143.25 251.46 120.7"/><polygon class="cls-5" points="232.56 262.59 210.36 285.14 188.04 307.58 143.41 352.45 98.55 397.08 76.11 419.39 53.56 441.59 75.76 419.05 98.08 396.61 142.71 351.74 187.57 307.11 210.01 284.8 232.56 262.59"/><polygon class="cls-5" points="105.23 280.26 119.09 293.78 132.88 307.38 160.35 334.68 187.65 362.14 201.25 375.93 214.76 389.8 200.9 376.28 187.11 362.69 159.64 335.38 132.34 307.92 118.75 294.13 105.23 280.26"/><polygon class="cls-5" points="194.14 423.31 208.7 408.41 223.34 393.57 252.72 364.02 282.27 334.64 297.1 320 312.01 305.44 297.45 320.35 282.81 335.18 253.43 364.73 223.88 394.12 209.05 408.75 194.14 423.31"/><polygon class="cls-5" points="32.64 307.64 47.2 292.74 61.84 277.91 91.22 248.36 120.77 218.97 135.6 204.34 150.51 189.78 135.95 204.68 121.31 219.52 91.93 249.06 62.38 278.45 47.55 293.08 32.64 307.64"/></g></g><rect class="cls-1" width="750" height="500"/></g><g id="BACKGROUND_1" data-name="BACKGROUND 1"><g class="cls-6"><rect class="cls-7" x="314.42" y="-76.37" width="230.39" height="230.39" transform="translate(98.38 315.16) rotate(-45)"/><path class="cls-5" d="M592.52,38.82,429.85,202l-.23.23-.24-.23-163-162.79-.35-.36.35-.35,163-162.79.24-.23.23.23Zm0,0L429.38-123.85h.47l-162.79,163v-.71l162.79,163h-.47Z"/><polygon class="cls-8" points="266.71 38.83 429.62 -124.08 180.6 -124.08 180.6 201.73 429.62 201.73 266.71 38.83"/><path class="cls-5" d="M266.71,38.82l162.7-163.1.21.48-249,.13.42-.41V201.73l-.42-.41,249,.13-.21.49Zm0,0L429.82,201.53l.48.49h-.68l-249,.13h-.41V-124.5h.41l249,.13h.68l-.48.49Z"/><rect class="cls-9" x="724.34" y="-73.18" width="230.39" height="230.39" transform="translate(216.19 605.95) rotate(-45)"/><path class="cls-5" d="M839.54-120.9,1002.68,41.78l.24.23-.24.23-162.79,163-.35.36-.36-.36-162.79-163-.23-.23.23-.24Zm0,0L676.86,42.24v-.47l163,162.8h-.7l163-162.79v.46Z"/><polygon class="cls-10" points="839.54 204.92 676.63 42.01 676.63 291.02 1002.45 291.02 1002.45 42.01 839.54 204.92"/><path class="cls-5" d="M839.54,204.92,676.43,42.21l.48-.2L677,291l-.41-.41h325.82l-.42.42.13-249,.49.2Zm0,0L1002.25,41.81l.48-.49V42l.13,249v.42H676.21V291l.13-249v-.69l.48.49Z"/><rect class="cls-11" x="597.01" y="-40.76" width="167.63" height="167.63" transform="translate(168.96 494.03) rotate(-45)"/><path class="cls-5" d="M680.83,161.59,562.06,43.29l-.23-.23.23-.24L680.48-75.83l.35-.35.35.35L799.59,42.82l.24.24-.24.23Zm0,0L799.12,42.82v.47L680.48-75.12h.7L562.53,43.29v-.47Z"/><polygon class="cls-12" points="680.83 -75.47 799.36 43.06 799.36 -138.12 562.3 -138.12 562.3 43.06 680.83 -75.47"/><path class="cls-5" d="M680.83-75.47,799.56,42.85l-.49.21-.13-181.18.42.41-118.53.09L562.3-137.7l.41-.42-.13,181.18-.48-.21Zm0,0L562.5,43.26l-.49.48v-.68l-.13-181.18v-.42h.42l118.53-.08,118.53.09h.41v.41l-.13,181.18v.68l-.48-.48Z"/><rect class="cls-13" x="66.15" y="-133.04" width="230.39" height="230.39" transform="translate(65.73 123.01) rotate(-45)"/><path class="cls-5" d="M344.26-17.85,181.58,145.3l-.23.23-.24-.23L18.09-17.49l-.36-.36.36-.35L181.11-181l.24-.23.23.23Zm0,0L181.11-180.52h.47L18.79-17.49v-.71l162.79,163h-.47Z"/><polygon class="cls-14" points="18.44 -17.84 181.35 -180.75 -67.66 -180.75 -67.66 145.06 181.35 145.06 18.44 -17.84"/><path class="cls-5" d="M18.44-17.85l162.71-163.1.2.48-249,.13.41-.41V145.06l-.41-.41,249,.13-.2.49Zm0,0L181.55,144.86l.49.49h-.69l-249,.13h-.42V-181.17h.42l249,.13H182l-.48.49Z"/><g class="cls-4"><polygon class="cls-5" points="753.74 -148.31 731.54 -125.77 709.23 -103.33 664.6 -58.46 619.73 -13.83 597.29 8.48 574.74 30.69 596.95 8.14 619.26 -14.3 663.89 -59.17 708.76 -103.8 731.2 -126.11 753.74 -148.31"/></g></g><rect class="cls-1" x="125" y="-515.97" width="500" height="500"/></g></g></svg>