<svg id="Ñëîé_1" data-name="Ñëîé 1" xmlns="http://www.w3.org/2000/svg" viewBox="0 0 3653.47 707.81"><defs><style>.cls-1{fill:#1d3f70;}.cls-2{fill:#5477af;}.cls-3{fill:#7995cc;}</style></defs><title>Artboard 3</title><g id="_5" data-name="5"><path class="cls-1" d="M886.94,488.41q-40,0-80.75-3.65C686.76,474.08,562.11,440,425.09,380.49c-125-54.26-262.62-130.88-420.81-234.25a9.45,9.45,0,0,1,10.33-15.82c561.74,367.08,989.26,498.52,1512.18,84.11C1638,126.41,1750.25,67,1860.47,38c95.06-25,190.67-28,284.17-8.94C2316.47,64.15,2451,167.28,2537.29,241.81c100.26,86.61,188.09,130.42,244.11,151.92,60.65,23.28,98.1,26.14,98.47,26.16a9.45,9.45,0,0,1-1.29,18.85c-1.6-.11-39.92-2.93-102.93-27-57.65-22-147.94-66.88-250.71-155.66C2448,189.63,2270.81,36.59,2023.46,36.59c-140.76,0-304.21,49.52-484.93,192.74-126.09,99.93-246.54,168.9-368.24,210.86C1076.69,472.47,983.32,488.41,886.94,488.41Z"/></g><g id="_4" data-name="4"><polygon class="cls-2" points="2811.45 164.88 2787.09 378.15 3653.47 707.81 2811.45 164.88"/><polygon class="cls-2" points="2743.48 461.47 2784.79 619.23 3653.47 707.81 2743.48 461.47"/><polygon class="cls-3" points="2680.53 261.21 3653.47 707.81 2479.29 438.35 2680.53 261.21"/><polygon class="cls-3" points="2936.07 36.27 2779.07 174.47 3653.47 707.81 2936.07 36.27"/></g></svg>